{"title":"Bewaqoofiyan (2014) Hindi DVDRIP ESUB GOPI SAHI","uid":10117883,"size":663431888,"categoryP":"video","categoryS":"movies","magnet":"?xt=urn:btih:25a7b981ae9aeb26b3e7ce56a2388d961737cdac&amp;dn=Bewaqoofiyan+%282014%29+Hindi+DVDRIP+ESUB+GOPI+SAHI&amp;tr=udp%3A%2F%2Ftracker.openbittorrent.com%3A80&amp;tr=udp%3A%2F%2Fopen.demonii.com%3A1337&amp;tr=udp%3A%2F%2Ftracker.coppersurfer.tk%3A6969&amp;tr=udp%3A%2F%2Fexodus.desync.com%3A6969","seeders":0,"leechers":4,"uploader":"jatt13","files":1,"time":1399627603,"description":"\nVideo\nID                             : 1\nFormat                         : AVC\nFormat/Info                    : Advanced Video Codec\nFormat profile                 : &lt;a class=&quot;__cf_email__&quot; href=&quot;/cdn-cgi/l/email-protection&quot; data-cfemail=&quot;4b062a22250b077f657b&quot;&gt;[email&amp;#160;protected]&lt;/a&gt;&lt;script cf-hash='f9e31' type=&quot;text/javascript&quot;&gt;\n/* &lt;![CDATA[ */!function(){try{var t=&quot;currentScript&quot;in document?document.currentScript:function(){for(var t=document.getElementsByTagName(&quot;script&quot;),e=t.length;e--;)if(t[e].getAttribute(&quot;cf-hash&quot;))return t[e]}();if(t&amp;&amp;t.previousSibling){var e,r,n,i,c=t.previousSibling,a=c.getAttribute(&quot;data-cfemail&quot;);if(a){for(e=&quot;&quot;,r=parseInt(a.substr(0,2),16),n=2;a.length-n;n+=2)i=parseInt(a.substr(n,2),16)^r,e+=String.fromCharCode(i);e=document.createTextNode(e),c.parentNode.replaceChild(e,c)}}}catch(u){}}();/* ]]&gt; */&lt;/script&gt;\nFormat settings, CABAC         : Yes\nFormat settings, ReFrames      : 4 frames\nCodec ID                       : V_MPEG4/ISO/AVC\nDuration                       : 1h 57mn\nBit rate                       : 700 Kbps\nWidth                          : 640 pixels\nHeight                         : 272 pixels\nDisplay aspect ratio           : 2.35:1\nFrame rate mode                : Constant\nFrame rate                     : 29.970 fps\nColor space                    : YUV\nChroma subsampling             : 4:2:0\nBit depth                      : 8 bits\nScan type                      : Progressive\nBits/(Pixel*Frame)             : 0.134\nStream size                    : 580 MiB (92%)\nTitle                          : GOPI SAHI\nWriting library                : x264 core 130 r2273 b3065e6\nLanguage                       : English\nDefault                        : Yes\nForced                         : No\nColor primaries                : BT.601 NTSC\nTransfer characteristics       : BT.709\nMatrix coefficients            : BT.601\n\nAudio\nID                             : 2\nFormat                         : MPEG Audio\nFormat version                 : Version 1\nFormat profile                 : Layer 3\nMode                           : Joint stereo\nMode extension                 : MS Stereo\nCodec ID                       : A_MPEG/L3\nCodec ID/Hint                  : MP3\nDuration                       : 1h 57mn\nBit rate mode                  : Constant\nBit rate                       : 48.0 Kbps\nChannel count                  : 2 channels\nSampling rate                  : 44.1 KHz\nCompression mode               : Lossy\nStream size                    : 40.5 MiB (6%)\nTitle                          : GOPI SAHI\nWriting library                : LAME3.98.2\nDefault                        : Yes\nForced                         : No\n[IMG]http://i.imgur.com/AIbT4iU.jpg[/IMG]\n[IMG]http://i.imgur.com/dG6LKuR.jpg[/IMG]\n[IMG]http://i.imgur.com/4rGHgaq.jpg[/IMG]\n[IMG]http://i.imgur.com/7K4fSOd.jpg[/IMG]\n[IMG]http://i.imgur.com/e5ZzaPI.jpg[/IMG]","torrent":{"xt":"urn:btih:25a7b981ae9aeb26b3e7ce56a2388d961737cdac","amp;dn":"Bewaqoofiyan+%282014%29+Hindi+DVDRIP+ESUB+GOPI+SAHI","amp;tr":["udp%3A%2F%2Ftracker.openbittorrent.com%3A80","udp%3A%2F%2Fopen.demonii.com%3A1337","udp%3A%2F%2Ftracker.coppersurfer.tk%3A6969","udp%3A%2F%2Fexodus.desync.com%3A6969"],"infoHash":"25a7b981ae9aeb26b3e7ce56a2388d961737cdac","infoHashBuffer":{"type":"Buffer","data":[37,167,185,129,174,154,235,38,179,231,206,86,162,56,141,150,23,55,205,172]},"announce":[],"urlList":[]}}